<svg width="30" height="29" viewBox="0 0 30 29" fill="none" xmlns="http://www.w3.org/2000/svg">
<path d="M25.5 13.1499H4.5C2.84315 13.1499 1.5 14.3587 1.5 15.8499V25.2999C1.5 26.7911 2.84315 27.9999 4.5 27.9999H25.5C27.1569 27.9999 28.5 26.7911 28.5 25.2999V15.8499C28.5 14.3587 27.1569 13.1499 25.5 13.1499Z" stroke="white" stroke-width="2" stroke-linecap="round" stroke-linejoin="round"/>
<path d="M7.5 13.15V7.75C7.5 5.95979 8.29018 4.2429 9.6967 2.97703C11.1032 1.71116 13.0109 1 15 1C16.9891 1 18.8968 1.71116 20.3033 2.97703C21.7098 4.2429 22.5 5.95979 22.5 7.75V13.15" stroke="white" stroke-width="2" stroke-linecap="round" stroke-linejoin="round"/>
</svg>
