<svg width="34" height="29" viewBox="0 0 34 29" fill="none" xmlns="http://www.w3.org/2000/svg">
<path d="M22.8182 28V25C22.8182 23.4087 22.2052 21.8826 21.1141 20.7574C20.023 19.6321 18.5431 19 17 19H6.81818C5.2751 19 3.79523 19.6321 2.70411 20.7574C1.61299 21.8826 1 23.4087 1 25V28" stroke="white" stroke-width="2" stroke-linecap="round" stroke-linejoin="round"/>
<path d="M11.909 13C15.1223 13 17.7272 10.3137 17.7272 7C17.7272 3.68629 15.1223 1 11.909 1C8.69571 1 6.09082 3.68629 6.09082 7C6.09082 10.3137 8.69571 13 11.909 13Z" stroke="white" stroke-width="2" stroke-linecap="round" stroke-linejoin="round"/>
<path d="M33 13H24.2727" stroke="white" stroke-width="2" stroke-linecap="round" stroke-linejoin="round"/>
</svg>
