<svg width="97" height="41" viewBox="0 0 97 41" fill="none" xmlns="http://www.w3.org/2000/svg">
<path d="M7.2 32L1.44 14.432L0.48 11.264V9.344H7.904L11.744 25.536H12.384L16.192 9.344H23.52V11.264L22.56 14.432L16.832 32H7.2ZM36.128 32.32C32.3947 32.32 29.7067 31.5733 28.064 30.08C26.4213 28.5653 25.6 26.144 25.6 22.816V14.496L25.632 11.264L25.6 9.344H32.768V21.216C32.768 22.1973 32.8427 23.072 32.992 23.84C33.1413 24.5867 33.4613 25.1733 33.952 25.6C34.4427 26.0267 35.1893 26.24 36.192 26.24C37.216 26.24 37.9733 26.048 38.464 25.664C38.9547 25.28 39.2747 24.7147 39.424 23.968C39.5733 23.2213 39.648 22.304 39.648 21.216V9.344H46.656V22.816C46.656 24.992 46.304 26.784 45.6 28.192C44.896 29.5787 43.776 30.6133 42.24 31.296C40.704 31.9787 38.6667 32.32 36.128 32.32Z" fill="#121212"/>
<path d="M48.68 21.128C48.68 17.3947 49.4267 14.7067 50.92 13.064C52.4347 11.4213 54.856 10.6 58.184 10.6L66.504 10.6L69.736 10.632L71.656 10.6V17.768H59.784C58.8027 17.768 57.928 17.8427 57.16 17.992C56.4133 18.1413 55.8267 18.4613 55.4 18.952C54.9733 19.4427 54.76 20.1893 54.76 21.192C54.76 22.216 54.952 22.9733 55.336 23.464C55.72 23.9547 56.2853 24.2747 57.032 24.424C57.7787 24.5733 58.696 24.648 59.784 24.648H71.656V31.656H58.184C56.008 31.656 54.216 31.304 52.808 30.6C51.4213 29.896 50.3867 28.776 49.704 27.24C49.0213 25.704 48.68 23.6667 48.68 21.128Z" fill="#121212"/>
<path d="M89.8 9L95.56 26.568L96.52 29.736V31.656H89.096L85.256 15.464H84.616L80.808 31.656L73.48 31.656V29.736L74.44 26.568L80.168 9H89.8Z" fill="#121212"/>
</svg>
